<svg xmlns="http://www.w3.org/2000/svg" viewBox="0 0 80.79 45"><defs><style>.cls-1{fill:#fff;}.cls-2{fill:#ed1c24;}.cls-3{fill:#221e20;}</style></defs><g id="Layer_2" data-name="Layer 2"><g id="Layer_1-2" data-name="Layer 1"><path class="cls-1" d="M6.11,12.21a6.11,6.11,0,1,1,6.1-6.1A6.11,6.11,0,0,1,6.11,12.21Z"/><path class="cls-1" d="M6.11,9.17A3.07,3.07,0,1,0,3,6.11,3.06,3.06,0,0,0,6.11,9.17Z"/><path class="cls-1" d="M2.59,45A2.59,2.59,0,0,1,0,42.41v-28A6.17,6.17,0,0,1,6.12,8.57a6.14,6.14,0,0,1,6.1,5.7V45Z"/><path class="cls-1" d="M6.12,11.61a3.13,3.13,0,0,0-3.08,3V42H9.19V14.48A3.1,3.1,0,0,0,6.12,11.61Z"/><path class="cls-1" d="M44.5,45V23.22a2.57,2.57,0,0,0-2.68-2.44,2.6,2.6,0,0,0-2.73,2.43V38.87a6.07,6.07,0,0,1-6,5.87,5.87,5.87,0,0,1-6-6V23.22a2.59,2.59,0,0,0-2.73-2.44,2.48,2.48,0,0,0-2.62,2.44V45H9.48V23.14a14.54,14.54,0,0,1,4.45-10.27A15,15,0,0,1,24.31,8.52a15.59,15.59,0,0,1,8.79,2.7,15.57,15.57,0,0,1,8.8-2.7,15,15,0,0,1,10.38,4.35,14.56,14.56,0,0,1,4.45,10.27V45Z"/><path class="cls-1" d="M41.9,11.57a12.5,12.5,0,0,0-7.65,2.57l-1.14.9L32,14.14a12.5,12.5,0,0,0-7.65-2.57A12,12,0,0,0,12.52,23.14V42h6.14V23.22a5.52,5.52,0,0,1,5.66-5.49,5.63,5.63,0,0,1,5.77,5.49V38.79a2.84,2.84,0,0,0,3,2.91,3,3,0,0,0,3-2.91V23.21a5.75,5.75,0,0,1,11.49,0V42h6.15V23.14A12,12,0,0,0,41.9,11.57Z"/><path class="cls-1" d="M53.6,45V33H68.72a.13.13,0,0,0,.11-.14.13.13,0,0,0-.11-.14H62.26a6,6,0,1,1-.09-11.91h6.54a.14.14,0,0,0,0-.28H53.6V11.72a3.15,3.15,0,0,1,3.14-3.14H68.83a12,12,0,0,1,12,12.09,12.29,12.29,0,0,1-1.65,6.12,12.3,12.3,0,0,1,1.65,6.13A12,12,0,0,1,68.87,45H53.6Z"/><path class="cls-1" d="M75.46,26.78l.52-.71a9.21,9.21,0,0,0,1.77-5.41,9,9,0,0,0-8.91-9H56.65v5.87H68.72a3.18,3.18,0,0,1,0,6.36H62.17a2.91,2.91,0,0,0,0,5.82h6.55a3.19,3.19,0,0,1,0,6.37H56.65V42H68.86a9,9,0,0,0,8.89-9.05A9.2,9.2,0,0,0,76,27.5Z"/><rect class="cls-1" x="17.05" y="17.72" width="35.36" height="27.28"/><rect class="cls-1" x="54.79" y="17.72" width="15.03" height="17.08"/><path class="cls-2" d="M3,6.11A3.07,3.07,0,1,1,6.11,9.17,3.06,3.06,0,0,1,3,6.11"/><path class="cls-3" d="M6.12,11.61a3.13,3.13,0,0,0-3.08,3V42H9.19V14.48a3.1,3.1,0,0,0-3.07-2.87"/><path class="cls-3" d="M41.9,11.57a12.5,12.5,0,0,0-7.65,2.57l-1.14.9L32,14.14a12.5,12.5,0,0,0-7.65-2.57A12,12,0,0,0,12.52,23.14V42h6.14V23.22a5.52,5.52,0,0,1,5.66-5.49,5.63,5.63,0,0,1,5.77,5.49V38.79a2.84,2.84,0,0,0,3,2.91,3,3,0,0,0,3-2.91V23.21a5.75,5.75,0,0,1,11.49,0V42h6.15V23.14A12,12,0,0,0,41.9,11.57"/><path class="cls-3" d="M68.72,29.67a3.19,3.19,0,0,1,0,6.37H56.65V42H68.86a9,9,0,0,0,8.89-9.05A9.2,9.2,0,0,0,76,27.5l-.53-.72.52-.71a9.21,9.21,0,0,0,1.77-5.41,9,9,0,0,0-8.91-9H56.65v5.87H68.72a3.18,3.18,0,0,1,0,6.36H62.17a2.91,2.91,0,0,0,0,5.82Z"/></g></g></svg>